<svg id="employee" xmlns="http://www.w3.org/2000/svg" width="512" height="512" viewBox="0 0 512 512">
  <path id="Trazado_11" data-name="Trazado 11" d="M512,256c0,141.387-114.613,256-256,256S0,397.387,0,256,114.613,0,256,0,512,114.613,512,256Zm0,0" fill="#0f2c60"/>
  <path id="Trazado_12" data-name="Trazado 12" d="M277.973,511.051c102.535-8.715,187.832-77.863,220.133-171.687L414.746,256l-1.98,1.828L290.906,135.969,97.266,330.348Zm0,0" fill="#020418"/>
  <path id="Trazado_13" data-name="Trazado 13" d="M334.531,236.324A137.266,137.266,0,1,1,197.266,99.059,137.268,137.268,0,0,1,334.531,236.324Zm0,0" fill="#fff"/>
  <path id="Trazado_14" data-name="Trazado 14" d="M197.266,99.059h0V373.594h0a137.268,137.268,0,0,0,0-274.535Zm0,0" fill="#dce1eb"/>
  <path id="Trazado_15" data-name="Trazado 15" d="M256.891,207.609a59.625,59.625,0,1,1-59.625-59.625A59.625,59.625,0,0,1,256.891,207.609Zm0,0" fill="#ffbeaa"/>
  <path id="Trazado_16" data-name="Trazado 16" d="M197.266,147.984h0v119.25h0a59.625,59.625,0,0,0,0-119.25Zm0,0" fill="#e09380"/>
  <path id="Trazado_17" data-name="Trazado 17" d="M102.453,335.586a137.272,137.272,0,0,0,189.625,0,102.162,102.162,0,0,0-189.625,0Zm0,0" fill="rgba(0,181,190,0.6)"/>
  <path id="Trazado_18" data-name="Trazado 18" d="M292.078,335.586a102.179,102.179,0,0,0-94.812-64.113h0V373.594h0A136.817,136.817,0,0,0,292.078,335.586Zm0,0" fill="#00b5be"/>
</svg>
