<svg xmlns="http://www.w3.org/2000/svg" width="274.531" height="274.535" viewBox="0 0 274.531 274.535">
  <g id="Grupo_5" data-name="Grupo 5" transform="translate(-44 -543.059)">
    <path id="Trazado_13" data-name="Trazado 13" d="M334.531,236.324A137.266,137.266,0,1,1,197.266,99.059,137.268,137.268,0,0,1,334.531,236.324Zm0,0" transform="translate(-16 444)" fill="#fff"/>
    <path id="Trazado_14" data-name="Trazado 14" d="M197.266,99.059h0V373.594h0a137.268,137.268,0,0,0,0-274.535Zm0,0" transform="translate(-16 444)" fill="#dce1eb"/>
    <path id="Trazado_15" data-name="Trazado 15" d="M256.891,207.609a59.625,59.625,0,1,1-59.625-59.625A59.625,59.625,0,0,1,256.891,207.609Zm0,0" transform="translate(-16 444)" fill="#ffbeaa"/>
    <path id="Trazado_16" data-name="Trazado 16" d="M197.266,147.984h0v119.25h0a59.625,59.625,0,0,0,0-119.25Zm0,0" transform="translate(-16 444)" fill="#e09380"/>
    <path id="Trazado_17" data-name="Trazado 17" d="M102.453,335.586a137.272,137.272,0,0,0,189.625,0,102.162,102.162,0,0,0-189.625,0Zm0,0" transform="translate(-16 444)" fill="rgba(0,181,190,0.6)"/>
    <path id="Trazado_18" data-name="Trazado 18" d="M292.078,335.586a102.179,102.179,0,0,0-94.812-64.113h0V373.594h0A136.817,136.817,0,0,0,292.078,335.586Zm0,0" transform="translate(-16 444)" fill="#00b5be"/>
  </g>
</svg>
