<svg xmlns="http://www.w3.org/2000/svg" width="189.625" height="289.652" viewBox="0 0 189.625 289.652">
  <g id="Grupo_5" data-name="Grupo 5" transform="translate(-86.453 -591.984)">
    <path id="Trazado_15" data-name="Trazado 15" d="M256.891,207.609a59.625,59.625,0,1,1-59.625-59.625A59.625,59.625,0,0,1,256.891,207.609Zm0,0" transform="translate(-16 444)" fill="#ffbeaa"/>
    <path id="Trazado_16" data-name="Trazado 16" d="M197.266,147.984h0v119.25h0a59.625,59.625,0,0,0,0-119.25Zm0,0" transform="translate(-16 444)" fill="#e09380"/>
    <path id="Trazado_17" data-name="Trazado 17" d="M102.453,375.795c24.645,38.308,58.039,61.838,94.813,61.838s70.168-23.53,94.813-61.838c-15.1-61.133-51.84-104.322-94.812-104.322S117.555,314.662,102.453,375.795Zm0,0" transform="translate(-16 444)" fill="rgba(0,181,190,0.6)"/>
    <path id="Trazado_18" data-name="Trazado 18" d="M292.078,375.793c-15.1-61.132-51.84-104.32-94.812-104.32h0V437.637h0C234.039,437.637,267.434,414.1,292.078,375.793Zm0,0" transform="translate(-16 444)" fill="#00b5be"/>
  </g>
</svg>
